<svg id="Layer_1" data-name="Layer 1" xmlns="http://www.w3.org/2000/svg" viewBox="0 0 1680 900"><path d="M974.14,0s-30.52,3.56-20.25,8.9c20.35,10.58-39,5.62-45.61,4.67a15.41,15.41,0,0,0-2.63-.14c-28.11,1,24.65,36.4-36.28,33.15-135.64-7.23-126,54-79.58,38.85S903.47-.79,652.42,44.69c-250.65,45.4-82,100.56-81.26,100.73h0c67.56,20.52-105,58.62-92,80.33,8.2,13.68,14.93,27.15,12.7,31.44-5,9.68-22.3,2.52-26.93,1.26s4.21-11.36,1.26-18.09-46.28,10.1-47.54,11.78,3.37,17.67,5.47,23.14,11.78,5,13,2.1c.83-1.91,22.9-7.76,38.19-11.6A6,6,0,0,0,478.3,256c-5.42-6.23-4.1-15.08-1.87-21.68a5.06,5.06,0,0,0-6.06-6.49c-36.89,9.43-161.89,42.5-169.06,59.7-8,19.26,15.25,33.16,17.43,34.41a.38.38,0,0,0,.33,0l163.33-53a3.22,3.22,0,0,1,3.71,1.34c2.64,4.22,8.29,14,9.57,22.3,1.69,10.94,2.53,19.77-7.57,14.73s-3.79-34.08-6.31-34.08S319,328.72,307.62,337.14s7.58,30.71,17.25,33.23c9.33,2.44,152.9-52.66,163.09-56.57a.41.41,0,0,1,.57.38c0,8.61,0,106.08-.84,111.31-.84,5.47-15.57-8-24.82-22.72s-7.09-40.43-11.3-37.48c-3.35,2.34,6.48,21.54-1,25.32a2.92,2.92,0,0,1-4.19-2.55l-1.83-55.8a2.25,2.25,0,0,1,3.59-1.87c5,3.78,14,10.06,20.66,11.8,5.09,1.32,11.81-2.82,17-7.05a5,5,0,0,1,8.08,3.94c-.35,36.16-1.29,144.55.12,148.67,1.69,5-1.09,29.2-23.56,18.52-34.08-17.25-38.28-6.32-38.28-5s5.46,7.56,12.61-8.81a.08.08,0,0,1,0-.05c7-21.89-6.73-38-13.63-44.46a.42.42,0,0,1,.5-.68c12.92,7.44,51.89,29.88,54.35,31.28,2.94,1.68,3.78-6.31,2.94-17.67s30.71-8.84,36.6-6.73,6.74,24,1.27,36.18c-4.4,9.8-28.35-.85-36.42-5.81a3.13,3.13,0,0,1-.86-4.58c4.44-5.73,15.19-21.94-2.67-44.69a.15.15,0,0,0-.05-.06c-61.83-55.93-91.69-59.29-98-41.63-6,16.72,21.58,36.45,24.56,38.53a.41.41,0,0,1,.16.48c-1.2,3.61-12.69,38.88-7.05,47.24,5.95,8.81,7.15,2.12,8.83-8.38,0,0,0-.05,0-.07-.42-60.61-41.07-63.36-44.75-63.49a.44.44,0,0,0-.39.23c-1.42,2.82-15.71,29.85-36.06,18.28-21.46-12.2,10.94-23.14,16.41-24.4s26.92,9.25,31.55-7.58-6.31-22.71-17.67-24-78.25,40-79.52,53c-1.26,25.25-9,22-10.37,22.86s-48.24-.78-51.89,4.77c-5.78,12.65-27.18,8.05-26.7,4.16a.39.39,0,0,1,.28-.31c20.2-7,32,48.41,33.07,53.55a.39.39,0,0,1-.29.47c-2,.51-11.48,3.13-9.73,6.64,2,3.93,26.09,4.21,29.45-.84s-15.14-5.33-15.14-5.33,48,7.57,48.52-29.73S240,445.91,222.92,445.4s-15.64,8.82-7.22,38,2.4,27.2-.12,30-21.83,6.05-35.58-28.17,22.16-46.56,31.42-50.49,36.18,10.1,37.86,4.77-16-4.21-23.84-2.52-2,9.25,40.11,11.5,37.58,37,29.17,42.07-12.9,9.54-11.78,28.61S316,562.36,341.28,582s44.32,10.09,30.85-19.64c-12.1-26.72-19.67-19.91-21.08-18.26a.44.44,0,0,0,0,.58h0a3.13,3.13,0,0,1-1.36,5.24,31.28,31.28,0,0,1-11.24.66c-11.78-1.12-8.4-12.18-6.18-24.12s23-8.41,23,3.93,19.08,6.73,19.08,6.73l-76.82,2.23a.43.43,0,0,1-.43-.55c1.7-5.65,15.61-51.85,16.66-55.53.91-3.17,50.82-4.15,70-4.41a.43.43,0,0,0,0-.85l-73.11-7.62a.41.41,0,0,1-.37-.3c-1.21-4.32-16.17-57.89-15.63-67s73.64,9.53,77.79,10.61a.4.4,0,0,1,.27.22l30.14,61.95a.48.48,0,0,1,0,.29c-.52,2-6.06,24.08-4.54,37.81,1.6,14.39,82.55,4.12,80.3-.37s-43.75-5-69-2.81-30.29,29.17-23.56,42.08,71.8,2.8,81.9-3.93,39.82,3.36,47.68,5.05,18-1.12,16.27-32.54c-1.4-26-34.66-12.83-44.07-7.5a2.15,2.15,0,0,0-.32,3.55c10.05,7.92,4.62,27.72,4.29,28.86a.49.49,0,0,0,0,.12l.52,57.29a9.46,9.46,0,0,1-3.64,7.59,44.12,44.12,0,0,1-31.94,9.1c-21.88-2.52-19.64-63.39-14.31-62s2.27,36.81,2.25,37h0c0,.18.14,13.48,21.87,16.83,19.07,2.93,18.75-47.81,18.35-60.91a.43.43,0,0,1,.85-.09c2.62,13.87,3.52,69.83,3.52,69.83s-10.32,149.25-48.74,167.2c-36.44,17-54.75-71.12,55.87-35.93A56.65,56.65,0,0,1,531.32,829c-10,23-29,48.94-64.58,71" style="fill:none;stroke:#1d1d1b;stroke-miterlimit:10;stroke-width:2px"/><path d="M974.14,0c22.09-6.12,69.44-52.27,17.36-52.27s-31.56-58.39-14.2-83.64,26.82,6.31,17.36,20.52C914.17-16,863.94-96.68,863.94-96.68s19.72-22.88,34.45-33.66,5.26-27.1,11.57-76.81-12.62-57.07-16-55.76-23.67-13.67-23.67-13.67-48.66-4.74-49.45,1.31,30.77,2.9,29.2,6.58-24.2-3.16-25.25-1.58,12.88,11.84,21.3,9.21,23.15,13.41,23.15,13.41c-30.25,7.1-23.94,17.88-23.15,14.47s9.73-2.11,9.73-2.11c25,1,36.56-6.31,33.41-4.73-7.11,5-25.78,55.76-27.88,72.59s18.41,14.47,17.62,8.15-39.16,1.7-25.25,5.53,21,11,21.83,30.24-27.36,25.78-33.67,26.83-19.46-2.1-50-.26-95.35,8.56-109.42-30c-19.72-68.64,35-85.48,39.72-86.79s2.89-7.1,11.31-13.42,18.15,12.89,18.15,12.89c55.49,5.26,47.87,70,35.24,92.59S723-96.15,702.71-112.72C675.88-138,681.93-155.33,694-180c29.19-39.72,78.64-19.21,72.06-12.63s-2.63,15,0,18.41,11-5.26,15.78-1c19.47,18.94-7.62,60-7.62,60s5.26,4.47,18.67-4.47,13.68-33.67,26.3-33.93,36-7.89,33.41-10.79-24.73,6-25.52-27.35S775-235,774-229c1.06,8.95,38.4,2.37,52.34,2.37s12.1-9.73,12.1-9.73-172.47,2-178.19-2,.66-7.24.66-7.24l184.63-.52L820.8-265.54H676.4v-84.69h17.89s1.58-18.15-1.32-26-8.41-35.77,2.9-58.91-4-91,9.47-93.11,26.3,11,28.66,17.88-18.14,4.74-18.14,4.74c55.49,21.57,36.29,62.33,35.24,78.12S734.27-406,734.27-406s-2.63.53,8.15,4.74,10,11.31,6.31,30c1.06,27.35,14.21-1.58,12.49-3.51s15.39-155.88,0-158.51c-35.91,4.21-44.57-1.05-44.57-1.05,16.83-25.78-11.58-60-14.21-82.59S704-642.7,729.8-634.29s-1.06,41.56,0,44.19,15.25.53,15.25.53-17.36,49.44-14.2,51S747.16-558,747.16-558s12.09,4.56,14.06-.53c-2.24-26.3,14.34-22.09,14.34-22.09,2.11-20.52-8.94-32.09-8.94-32.09C758.2-587.47,739.26-598,739.26-598s10.53-11,12.63-22.62c.53-19.46.53-53.13,16.83-42.08s9.47,68.91,13.15,68.38,4.21-4.21,7.89,11.57c1.06,25.78-1.57,24.73-12.62,26.31s-15.78,18.93-15.78,18.93l7.89-3.68c7.89-3.68,19.46,11.57,10.52,23.67s7.36,30.25,6.31,38.54c-2.37,15.38,15.78,115.59,15.78,115.59h32.35s0,67.47-4.34,67.07-4.34-59.18-4.34-59.18l-155.44-2.36.4,92.31s-15.39,8.29-17.76,24.46,41.43,13.81,41.43,13.81c-30.38-.79-32.75,35.12-49.32,46.16s-51.29-2-41,3.55,12.63,23.28,12.63,23.28c-12.16-20.51-42.22-13-45.38-12.62s-76-5.92-76,26.82c4.82,33.14,42.91,32.36,42.91,32.36l128.23,1.57c.79-7.49-24.08-24.42-42.22-24.06S558.05-148,558.05-149.94s13.8-1.58,16.17.4,80.48,24.46,89.95,22.09,13-.92,13.94,8.68c1.32,22.88,51,26.69,49.45,28.67C719.67-74.85,676-96.68,676-96.68H518.59s-94.68,14.43-116-124.45-78.25-65.09-51.29-28.07c27.32,37.5,123.88-137.63,35.51-192.86" style="fill:none;stroke:#1d1d1b;stroke-miterlimit:10;stroke-width:2px"/></svg>