<svg id="Layer_1" data-name="Layer 1" xmlns="http://www.w3.org/2000/svg" viewBox="0 0 500 500"><text
transform="matrix(0.99, -0.15, 0.15, 0.99, 201.93, 55.95)"
style="font-size:44px;fill:#fff;font-family:GmarketSansTTFBold, Gmarket Sans TTF">H</text><text
transform="translate(238.65 50.67) rotate(1.54)"
style="font-size:44px;fill:#fff;font-family:GmarketSansTTFBold, Gmarket Sans TTF">T</text><text
transform="translate(271.17 50.95) rotate(12.3)"
style="font-size:44px;fill:#fff;font-family:GmarketSansTTFBold, Gmarket Sans TTF">M</text><text
transform="translate(312.74 60.55) rotate(22.65)"
style="font-size:44px;fill:#fff;font-family:GmarketSansTTFBold, Gmarket Sans TTF">L</text><text
transform="translate(339.58 72.21) rotate(28.57)"
style="font-size:44px;fill:#fff;font-family:GmarketSansTTFBold, Gmarket Sans TTF"> </text><text
transform="translate(350.06 77.53) rotate(33.85)"
style="font-size:44px;fill:#fff;font-family:GmarketSansTTFBold, Gmarket Sans TTF">/</text><text
transform="translate(370.64 91.67) rotate(39.11)"
style="font-size:44px;fill:#fff;font-family:GmarketSansTTFBold, Gmarket Sans TTF"> </text><text
transform="translate(380.22 98.24) rotate(46.43)"
style="font-size:44px;fill:#fff;font-family:GmarketSansTTFBold, Gmarket Sans TTF">C</text><text
transform="matrix(0.55, 0.84, -0.84, 0.55, 407.18, 126.9)"
style="font-size:44px;fill:#fff;font-family:GmarketSansTTFBold, Gmarket Sans TTF">S</text><text
transform="matrix(0.41, 0.91, -0.91, 0.41, 424.93, 153.71)"
style="font-size:44px;fill:#fff;font-family:GmarketSansTTFBold, Gmarket Sans TTF">S</text><text
transform="translate(437.68 183.55) rotate(72.29)"
style="font-size:44px;fill:#fff;font-family:GmarketSansTTFBold, Gmarket Sans TTF"> </text><text
transform="translate(441.57 194.62) rotate(77.61)"
style="font-size:44px;fill:#fff;font-family:GmarketSansTTFBold, Gmarket Sans TTF">/</text><text
transform="translate(446.65 219.07) rotate(82.91)"
style="font-size:44px;fill:#fff;font-family:GmarketSansTTFBold, Gmarket Sans TTF"> </text><text
transform="matrix(0.02, 1, -1, 0.02, 448.63, 230.59)"
style="font-size:44px;fill:#fff;font-family:GmarketSansTTFBold, Gmarket Sans TTF">J</text><text
transform="translate(449.59 259.36) rotate(97.93)"
style="font-size:44px;fill:#fff;font-family:GmarketSansTTFBold, Gmarket Sans TTF">A</text><text
transform="matrix(-0.29, 0.96, -0.96, -0.29, 445.99, 289.29)"
style="font-size:44px;fill:#fff;font-family:GmarketSansTTFBold, Gmarket Sans TTF">V</text><text
transform="translate(437.54 319.09) rotate(115.58)"
style="font-size:44px;fill:#fff;font-family:GmarketSansTTFBold, Gmarket Sans TTF">A</text><text
transform="matrix(-0.58, 0.82, -0.82, -0.58, 422.29, 350.91)"
style="font-size:44px;fill:#fff;font-family:GmarketSansTTFBold, Gmarket Sans TTF">S</text><text
transform="matrix(-0.71, 0.7, -0.7, -0.71, 404.14, 377.39)"
style="font-size:44px;fill:#fff;font-family:GmarketSansTTFBold, Gmarket Sans TTF">C</text><text
transform="translate(376.02 404.9) rotate(145.75)"
style="font-size:44px;fill:#fff;font-family:GmarketSansTTFBold, Gmarket Sans TTF">R</text><text
transform="translate(348 423.32) rotate(152.53)"
style="font-size:44px;fill:#fff;font-family:GmarketSansTTFBold, Gmarket Sans TTF">I</text><text
transform="translate(336.16 430.13) rotate(159.15)"
style="font-size:44px;fill:#fff;font-family:GmarketSansTTFBold, Gmarket Sans TTF">P</text><text
transform="translate(306.45 441.57) rotate(168.47)"
style="font-size:44px;fill:#fff;font-family:GmarketSansTTFBold, Gmarket Sans TTF">T</text><text
transform="matrix(-1, 0.09, -0.09, -1, 274.12, 447.59)"
style="font-size:44px;fill:#fff;font-family:GmarketSansTTFBold, Gmarket Sans TTF"> </text><text
transform="translate(262.4 449.15) rotate(-179.07)"
style="font-size:44px;fill:#fff;font-family:GmarketSansTTFBold, Gmarket Sans TTF">/</text><text
transform="translate(237.48 448.65) rotate(-174.69)"
style="font-size:44px;fill:#fff;font-family:GmarketSansTTFBold, Gmarket Sans TTF"> </text><text
transform="translate(225.83 448.24) rotate(-168.18)"
style="font-size:44px;fill:#fff;font-family:GmarketSansTTFBold, Gmarket Sans TTF">R</text><text
transform="matrix(-0.93, -0.36, 0.36, -0.93, 193.23, 441.42)"
style="font-size:44px;fill:#fff;font-family:GmarketSansTTFBold, Gmarket Sans TTF">E</text><text
transform="matrix(-0.86, -0.51, 0.51, -0.86, 163.87, 430.34)"
style="font-size:44px;fill:#fff;font-family:GmarketSansTTFBold, Gmarket Sans TTF">A</text><text
transform="translate(134.34 413.14) rotate(-138.83)"
style="font-size:44px;fill:#fff;font-family:GmarketSansTTFBold, Gmarket Sans TTF">C</text><text
transform="matrix(-0.63, -0.78, 0.78, -0.63, 105.96, 388.25)"
style="font-size:44px;fill:#fff;font-family:GmarketSansTTFBold, Gmarket Sans TTF">T</text><text
transform="translate(85.68 362.36) rotate(-122.64)"
style="font-size:44px;fill:#fff;font-family:GmarketSansTTFBold, Gmarket Sans TTF"> </text><text
transform="matrix(-0.46, -0.89, 0.89, -0.46, 79.06, 352.64)"
style="font-size:44px;fill:#fff;font-family:GmarketSansTTFBold, Gmarket Sans TTF">/</text><text
transform="translate(67.84 330.35) rotate(-112.05)"
style="font-size:44px;fill:#fff;font-family:GmarketSansTTFBold, Gmarket Sans TTF"> </text><text
transform="translate(62.9 319.77) rotate(-105.7)"
style="font-size:44px;fill:#fff;font-family:GmarketSansTTFBold, Gmarket Sans TTF">P</text><text
transform="translate(53.99 289.22) rotate(-95.76)"
style="font-size:44px;fill:#fff;font-family:GmarketSansTTFBold, Gmarket Sans TTF">H</text><text
transform="translate(50.4 252.31) rotate(-86)"
style="font-size:44px;fill:#fff;font-family:GmarketSansTTFBold, Gmarket Sans TTF">P</text><text
transform="translate(53.16 220.27) rotate(-79.7)"
style="font-size:44px;fill:#fff;font-family:GmarketSansTTFBold, Gmarket Sans TTF"> </text><text
transform="translate(54.93 208.66) rotate(-74.39)"
style="font-size:44px;fill:#fff;font-family:GmarketSansTTFBold, Gmarket Sans TTF">/</text><text
transform="translate(61.91 184.72) rotate(-69.07)"
style="font-size:44px;fill:#fff;font-family:GmarketSansTTFBold, Gmarket Sans TTF"> </text><text
transform="translate(65.5 173.6) rotate(-62.69)"
style="font-size:44px;fill:#fff;font-family:GmarketSansTTFBold, Gmarket Sans TTF">S</text><text
transform="translate(79.83 145.24) rotate(-53.03)"
style="font-size:44px;fill:#fff;font-family:GmarketSansTTFBold, Gmarket Sans TTF">A</text><text
transform="translate(101.08 117.04) rotate(-43.48)"
style="font-size:44px;fill:#fff;font-family:GmarketSansTTFBold, Gmarket Sans TTF">S</text><text
transform="matrix(0.83, -0.56, 0.56, 0.83, 124.38, 94.83)"
style="font-size:44px;fill:#fff;font-family:GmarketSansTTFBold, Gmarket Sans TTF">S</text><text
transform="translate(151.48 77.01) rotate(-27.94)"
style="font-size:44px;fill:#fff;font-family:GmarketSansTTFBold, Gmarket Sans TTF"> </text><text
transform="translate(161.69 71.22) rotate(-22.64)"
style="font-size:44px;fill:#fff;font-family:GmarketSansTTFBold, Gmarket Sans TTF">/</text><text
transform="matrix(0.95, -0.3, 0.3, 0.95, 184.83, 61.87)"
style="font-size:44px;fill:#fff;font-family:GmarketSansTTFBold, Gmarket Sans TTF"> </text></svg>