<svg xmlns="http://www.w3.org/2000/svg" viewBox="0 0 538.96 534.14"><g id="Layer_2" data-name="Layer 2"><g id="Layer_1-2" data-name="Layer 1"><path d="M35.11,179.34c70.73,44.21-6.56,184.39-28.42,154.37-21.58-29.63,24-88.69,41.05,22.47s92.84,99.61,92.84,99.61h126s34.95,17.48,41.26,5.27c1.27-1.58-38.52-4.64-39.57-22.95-.74-7.69-3.58-8.84-11.16-6.95s-70.11-16.1-72-17.68-13-1.9-13-.32S210.38,429.24,224.9,429s34.42,13.26,33.79,19.26L156.05,447s-30.49.63-34.35-25.89c0-26.22,58.35-21.16,60.88-21.48s26.58-6.31,36.32,10.11c0,0-1.9-14.21-10.11-18.63s19.58,6,32.84-2.85,15.16-37.58,39.48-36.94c0,0-35.06,1.89-33.16-11.06s14.21-19.58,14.21-19.58l-.32-73.89,124.42,1.89s0,47.06,3.48,47.37,3.47-53.68,3.47-53.68H367.32s-14.53-80.21-12.63-92.53c.84-6.63-12.21-21.16-5.06-30.84s-2.1-21.89-8.42-19l-6.31,3s3.79-13.89,12.63-15.16,11-.42,10.1-21.05c-2.94-12.63-3.37-9.68-6.31-9.26s2.52-45.9-10.53-54.74-13.05,18.11-13.47,33.68c-1.69,9.27-10.11,18.11-10.11,18.11s15.16,8.42,21.9-11.79c0,0,8.84,9.26,7.15,25.68,0,0-13.27-3.36-11.47,17.69-1.58,4.07-11.26.42-11.26.42s-10.53,16.84-13,15.58,11.36-40.84,11.36-40.84-11.36,1.68-12.21-.42,20.63-28.64,0-35.37-24-4.21-21.89,13.89,24.84,45.48,11.37,66.11c0,0,6.94,4.21,35.68.84,12.32,2.1-1.38,125.33,0,126.87s-9.16,24.71-10,2.81c2.95-14.94,3.58-20.63-5.05-24s-6.53-3.79-6.53-3.79,12.63-4.63,13.48-17.26,16.21-45.26-28.21-62.53c0,0,16.42,1.69,14.52-3.79s-12.21-16-22.95-14.31,1.48,56-7.57,74.53-4.64,40.84-2.32,47.15,1,20.85,1,20.85H266.9v67.78H382.48l19.78,15.58-147.78.42s-5.11,2.64-.53,5.79S396.58,344,396.58,344s1.47,7.79-9.68,7.79-41.06,5.27-41.9-1.89c.84-4.84,41.9,2.94,42.53,29.68s18.31,19.58,20.42,21.9-16.63,8.42-26.74,8.63-10.31,20-21,27.16-15,3.57-15,3.57,21.69-32.84,6.11-48c-3.79-3.36-10.53,3.58-12.63.85s-5.27-9.48,0-14.74S304.37,357.27,281,389.06c-9.68,19.78-14.52,33.68,6.95,53.89,16.21,13.26,57.26,10.95,67.37-7.16s16.21-69.89-28.21-74.1c0,0-7.79-15.37-14.53-10.32s-5.26,9.69-9.05,10.74S256,376.63,271.74,431.58c11.26,30.85,63.16,25.48,87.58,24s34.94,1.05,40,.21,27.58-6.1,26.94-21.47-6.34-21.15-17.47-24.21,19.58-9.48,20.21-4.42-15.79,6.94-14.1-6.53,16.63-54.1,22.31-58.1c2.53-1.27-6.74,4.56-26.73,3.78,0,0-7.16-1-7.79,1.69S397,340.63,421.21,335c0,0-11.79-12.84-18.52-10.74s-17.9-6.1-17.06-7.37,18.95,4.22,20.21,1.27-24-.42-23.36-5.27,39.57-1,39.57-1,16.21,12,18.95,10.95,17.9,4.84,12.84,44.63,2.53,52.84-9.26,61.47-27.58,27-27.58,27,40.21,64.6,104.63-15c7.58-11.37,0-36.63-13.89-16.42s-30.32,66.95,11.37,66.95,3.79,36.94-13.9,41.84" style="fill:none;stroke:#1d1d1b;stroke-miterlimit:10;stroke-width:2px"/></g></g></svg>