<?xml version="1.0" encoding="utf-8"?>
<!-- Generator: Adobe Illustrator 25.4.0, SVG Export Plug-In . SVG Version: 6.00 Build 0)  -->
<svg version="1.1" id="Layer_1" xmlns="http://www.w3.org/2000/svg" xmlns:xlink="http://www.w3.org/1999/xlink" x="0px" y="0px"
	 viewBox="0 0 4282.2 800" style="enable-background:new 0 0 4282.2 800;" xml:space="preserve">
<style type="text/css">
	.st0{fill:none;}
	.st1{fill:none;stroke:#000000;stroke-width:2.88;}
	.st2{fill:none;stroke:#000000;stroke-width:3.6;}
	.st3{fill:none;stroke:#f00;stroke-width:2;stroke-miterlimit:10;}
	.st4{fill:none;stroke:#E30613;stroke-miterlimit:10;}
	.st5{fill:url(#SVGID_1_);}
	.st6{fill:url(#SVGID_00000180324678218285076120000010948829389571946912_);}
	.st7{fill:url(#SVGID_00000057828368680677675670000006436727717192875169_);}
	.st8{fill:url(#SVGID_00000136398112979778689030000005092287129974803612_);}
	.st9{fill:url(#SVGID_00000176752637672239593790000013102945160414761132_);}
	.st10{fill:url(#SVGID_00000175322414871008229360000014974791399677970354_);}
	.st11{font-family:'Arial-Black';}
	.st12{font-size:286.3253px;}
	.st13{fill:url(#SVGID_00000018927506634543968770000002257321160206664893_);}
	.st14{fill:url(#SVGID_00000170279891817823919340000003568491396792812963_);}
	.st15{fill:url(#SVGID_00000080886976320494566030000010642155750723459738_);}
	.st16{fill:url(#SVGID_00000158741694476606980970000006186674869167056534_);}
	.st17{fill:url(#SVGID_00000109725204635754436620000012973045338433551022_);}
	.st18{fill:url(#SVGID_00000132087059417435595030000016664116805149643159_);}
	.st19{fill:url(#SVGID_00000105416943010627325310000008614684299187205007_);}
	.st20{fill:url(#SVGID_00000121247750920930540560000014559356952820744617_);}
	.st21{fill:url(#SVGID_00000084488090900782641660000004787435603610443148_);}
	.st22{fill:url(#SVGID_00000155139560277578220020000006259482002469550211_);}
	.st23{fill:url(#SVGID_00000165955682503010439240000016822844644468114609_);}
	.st24{fill:url(#SVGID_00000149342590931120205640000000176603671259730577_);}
	.st25{fill:url(#SVGID_00000082330508126776059200000013903186431040154275_);}
	.st26{fill:url(#SVGID_00000090268825757148075570000000417544338765821103_);}
	.st27{fill:url(#SVGID_00000159452095668757062440000001459525594952921746_);}
	.st28{fill:url(#SVGID_00000006690178539780045150000010273880093857783484_);}
	.st29{fill:url(#SVGID_00000085215535800371306200000010425617109588330927_);}
</style>
<pattern  width="72" height="72" patternUnits="userSpaceOnUse" id="_x31_0_lpi_40_x25_" viewBox="72.2 -72 72 72" style="overflow:visible;">
	<g>
		<rect x="72.2" y="-72" class="st0" width="72" height="72"/>
		<g>
			<line class="st1" x1="144" y1="-3.6" x2="216.5" y2="-3.6"/>
			<line class="st1" x1="144" y1="-18" x2="216.5" y2="-18"/>
			<line class="st1" x1="144" y1="-32.4" x2="216.5" y2="-32.4"/>
			<line class="st1" x1="144" y1="-46.8" x2="216.5" y2="-46.8"/>
			<line class="st1" x1="144" y1="-61.2" x2="216.5" y2="-61.2"/>
			<line class="st1" x1="144" y1="-10.8" x2="216.5" y2="-10.8"/>
			<line class="st1" x1="144" y1="-25.2" x2="216.5" y2="-25.2"/>
			<line class="st1" x1="144" y1="-39.6" x2="216.5" y2="-39.6"/>
			<line class="st1" x1="144" y1="-54" x2="216.5" y2="-54"/>
			<line class="st1" x1="144" y1="-68.4" x2="216.5" y2="-68.4"/>
		</g>
		<g>
			<line class="st1" x1="72" y1="-3.6" x2="144.5" y2="-3.6"/>
			<line class="st1" x1="72" y1="-18" x2="144.5" y2="-18"/>
			<line class="st1" x1="72" y1="-32.4" x2="144.5" y2="-32.4"/>
			<line class="st1" x1="72" y1="-46.8" x2="144.5" y2="-46.8"/>
			<line class="st1" x1="72" y1="-61.2" x2="144.5" y2="-61.2"/>
			<line class="st1" x1="72" y1="-10.8" x2="144.5" y2="-10.8"/>
			<line class="st1" x1="72" y1="-25.2" x2="144.5" y2="-25.2"/>
			<line class="st1" x1="72" y1="-39.6" x2="144.5" y2="-39.6"/>
			<line class="st1" x1="72" y1="-54" x2="144.5" y2="-54"/>
			<line class="st1" x1="72" y1="-68.4" x2="144.5" y2="-68.4"/>
		</g>
		<g>
			<line class="st1" x1="0" y1="-3.6" x2="72.5" y2="-3.6"/>
			<line class="st1" x1="0" y1="-18" x2="72.5" y2="-18"/>
			<line class="st1" x1="0" y1="-32.4" x2="72.5" y2="-32.4"/>
			<line class="st1" x1="0" y1="-46.8" x2="72.5" y2="-46.8"/>
			<line class="st1" x1="0" y1="-61.2" x2="72.5" y2="-61.2"/>
			<line class="st1" x1="0" y1="-10.8" x2="72.5" y2="-10.8"/>
			<line class="st1" x1="0" y1="-25.2" x2="72.5" y2="-25.2"/>
			<line class="st1" x1="0" y1="-39.6" x2="72.5" y2="-39.6"/>
			<line class="st1" x1="0" y1="-54" x2="72.5" y2="-54"/>
			<line class="st1" x1="0" y1="-68.4" x2="72.5" y2="-68.4"/>
		</g>
	</g>
</pattern>
<pattern  width="72" height="72" patternUnits="userSpaceOnUse" id="_x31_0_lpi_50_x25_" viewBox="72.2 -72 72 72" style="overflow:visible;">
	<g>
		<rect x="72.2" y="-72" class="st0" width="72" height="72"/>
		<g>
			<line class="st2" x1="144" y1="-3.6" x2="216.5" y2="-3.6"/>
			<line class="st2" x1="144" y1="-18" x2="216.5" y2="-18"/>
			<line class="st2" x1="144" y1="-32.4" x2="216.5" y2="-32.4"/>
			<line class="st2" x1="144" y1="-46.8" x2="216.5" y2="-46.8"/>
			<line class="st2" x1="144" y1="-61.2" x2="216.5" y2="-61.2"/>
			<line class="st2" x1="144" y1="-10.8" x2="216.5" y2="-10.8"/>
			<line class="st2" x1="144" y1="-25.2" x2="216.5" y2="-25.2"/>
			<line class="st2" x1="144" y1="-39.6" x2="216.5" y2="-39.6"/>
			<line class="st2" x1="144" y1="-54" x2="216.5" y2="-54"/>
			<line class="st2" x1="144" y1="-68.4" x2="216.5" y2="-68.4"/>
		</g>
		<g>
			<line class="st2" x1="72" y1="-3.6" x2="144.5" y2="-3.6"/>
			<line class="st2" x1="72" y1="-18" x2="144.5" y2="-18"/>
			<line class="st2" x1="72" y1="-32.4" x2="144.5" y2="-32.4"/>
			<line class="st2" x1="72" y1="-46.8" x2="144.5" y2="-46.8"/>
			<line class="st2" x1="72" y1="-61.2" x2="144.5" y2="-61.2"/>
			<line class="st2" x1="72" y1="-10.8" x2="144.5" y2="-10.8"/>
			<line class="st2" x1="72" y1="-25.2" x2="144.5" y2="-25.2"/>
			<line class="st2" x1="72" y1="-39.6" x2="144.5" y2="-39.6"/>
			<line class="st2" x1="72" y1="-54" x2="144.5" y2="-54"/>
			<line class="st2" x1="72" y1="-68.4" x2="144.5" y2="-68.4"/>
		</g>
		<g>
			<line class="st2" x1="0" y1="-3.6" x2="72.5" y2="-3.6"/>
			<line class="st2" x1="0" y1="-18" x2="72.5" y2="-18"/>
			<line class="st2" x1="0" y1="-32.4" x2="72.5" y2="-32.4"/>
			<line class="st2" x1="0" y1="-46.8" x2="72.5" y2="-46.8"/>
			<line class="st2" x1="0" y1="-61.2" x2="72.5" y2="-61.2"/>
			<line class="st2" x1="0" y1="-10.8" x2="72.5" y2="-10.8"/>
			<line class="st2" x1="0" y1="-25.2" x2="72.5" y2="-25.2"/>
			<line class="st2" x1="0" y1="-39.6" x2="72.5" y2="-39.6"/>
			<line class="st2" x1="0" y1="-54" x2="72.5" y2="-54"/>
			<line class="st2" x1="0" y1="-68.4" x2="72.5" y2="-68.4"/>
		</g>
	</g>
</pattern>
<image style="overflow:visible;" width="1280" height="800" xlink:href="17BC405FC1E2ABC5.png"  transform="matrix(0.9161 0 0 0.9161 -1172.55 -1095.0743)">
</image>
<path class="st3" d="M433.4,155.7v609.9h225.5h126c0,0,34.9,17.5,41.3,5.3c1.3-1.6-38.5-4.6-39.6-22.9c-0.7-7.7-3.6-8.8-11.2-6.9
	c-7.6,1.9-70.1-16.1-72-17.7c-1.9-1.6-12.9-1.9-12.9-0.3c0,1.6,38.2,16.1,52.7,15.8c14.5-0.3,34.4,13.3,33.8,19.3l-102.6-1.3
	c0,0-30.5,0.6-34.4-25.9c0-26.2,58.4-21.2,60.9-21.5s26.6-6.3,36.3,10.1c0,0-1.9-14.2-10.1-18.6s19.6,6,32.8-2.8
	s15.2-37.6,39.5-36.9c0,0-35.1,1.9-33.2-11.1c1.9-12.9,14.2-19.6,14.2-19.6l-0.3-73.9l124.4,1.9c0,0,0,47.1,3.5,47.4
	s3.5-53.7,3.5-53.7h-25.9c0,0-14.5-80.2-12.6-92.5c0.8-6.6-12.2-21.2-5.1-30.8c7.2-9.7-2.1-21.9-8.4-18.9c-6.3,2.9-6.3,2.9-6.3,2.9
	s3.8-13.9,12.6-15.2s10.9-0.4,10.1-21.1c-2.9-12.6-3.4-9.7-6.3-9.3c-2.9,0.4,2.5-45.9-10.5-54.7c-13.1-8.8-13.1,18.1-13.5,33.7
	c-1.7,9.3-10.1,18.1-10.1,18.1s15.2,8.4,21.9-11.8c0,0,8.8,9.3,7.2,25.7c0,0-13.3-3.4-11.5,17.7c-1.6,4.1-11.3,0.4-11.3,0.4
	s-10.5,16.8-13.1,15.6s11.4-40.8,11.4-40.8s-11.4,1.7-12.2-0.4s20.6-28.6,0-35.4c-20.6-6.7-24-4.2-21.9,13.9
	c2.1,18.1,24.8,45.5,11.4,66.1c0,0,6.9,4.2,35.7,0.8c12.3,2.1-1.4,125.3,0,126.9c1.4,1.5-9.2,24.7-10,2.8c2.9-14.9,3.6-20.6-5.1-24
	c-8.6-3.4-6.5-3.8-6.5-3.8s12.6-4.6,13.5-17.3c0.8-12.6,16.2-45.3-28.2-62.5c0,0,16.4,1.7,14.5-3.8c-1.9-5.5-12.2-16-22.9-14.3
	s1.5,56-7.6,74.5s-4.6,40.8-2.3,47.2s1.1,20.8,1.1,20.8h-14.3v67.8h115.6l19.8,15.6l-147.8,0.4c0,0-5.1,2.6-0.5,5.8
	c4.6,3.2,142.6,1.6,142.6,1.6s1.5,7.8-9.7,7.8c-11.2,0-41.1,5.3-41.9-1.9c0.8-4.8,41.9,2.9,42.5,29.7c0.6,26.7,18.3,19.6,20.4,21.9
	c2.1,2.3-16.6,8.4-26.7,8.6c-10.1,0.2-10.3,20-21.1,27.2c-10.7,7.2-14.9,3.6-14.9,3.6s21.7-32.8,6.1-48c-3.8-3.4-10.5,3.6-12.6,0.8
	c-2.1-2.7-5.3-9.5,0-14.7c5.3-5.3-34.3-21.7-57.7,10.1c-9.7,19.8-14.5,33.7,6.9,53.9c16.2,13.3,57.3,10.9,67.4-7.2
	c10.1-18.1,16.2-69.9-28.2-74.1c0,0-7.8-15.4-14.5-10.3c-6.7,5.1-5.3,9.7-9.1,10.7c-3.8,1.1-47.6,14.5-31.8,69.5
	c11.3,30.8,63.2,25.5,87.6,24c24.4-1.5,34.9,1.1,40,0.2s27.6-6.1,26.9-21.5s-6.3-21.2-17.5-24.2c-11.1-3.1,19.6-9.5,20.2-4.4
	c0.6,5.1-15.8,6.9-14.1-6.5c1.7-13.5,16.6-54.1,22.3-58.1c2.5-1.3-6.7,4.6-26.7,3.8c0,0-7.2-1.1-7.8,1.7c-0.6,2.7-5.7-5.9,18.5-11.6
	c0,0-11.8-12.8-18.5-10.7c-6.7,2.1-17.9-6.1-17.1-7.4c0.8-1.3,18.9,4.2,20.2,1.3c1.3-2.9-24-0.4-23.4-5.3c0.6-4.8,39.6-1.1,39.6-1.1
	s16.2,12,18.9,10.9c2.7-1.1,17.9,4.8,12.8,44.6c-5.1,39.8,2.5,52.8-9.3,61.5c-11.8,8.6-27.6,26.9-27.6,26.9h65.6h267.5V571.1h534.3
	V374.4c0,0,0.8-52.1,3.4-54.6c0,0-2.7,50.5,13.7,48s16.4-12.6,16.4-12.6s-2.3-26.7,1.7-27.8c4-1.1,5.7,44.6-10.7,46.5
	s-26.7-9.3-26.7-9.3l0.4-46.3c0,0-10.5-18.1,0.8-22.9c0,0-29.7-19.4-30.9,4.2c-1.3,23.6,6.3,25.7,12.2,24.4
	c5.9-1.3,28.2-8.8,35.8-3.8c7.6,5.1,56.4,12.6,61.5,2.9c5.1-9.7,1.3-29.9-17.7-31.6s-50.1-1.3-51.8,2.1c-1.7,3.4,59.1,11.1,60.3,0.3
	s-3.4-28.5-3.4-28.5l22.7-46.7c0,0,58.1-15.2,58.5-8c0.4,7.2-11.8,50.5-11.8,50.5l-60.6,6.3c0,0,57.3,0.4,58.1,3.4
	c0.8,2.9,12.6,42.1,12.6,42.1l-58.1-1.7c0,0,14.3,4.2,14.3-5.1c0-9.3,15.6-11.9,17.3-2.9c1.7,9,4.2,17.3-4.6,18.1
	c-8.8,0.8-11.8-2.1-11.8-2.1l2.5-2.5c0,0-5.9-8.8-16,13.5s4.2,29.5,23.2,14.7c18.9-14.7,42.9-32.8,43.8-47.2
	c0.8-14.3-2.5-17.7-8.8-21.5c-6.3-3.8-9.7-29.9,21.9-31.6s36-7.4,30.1-8.6c-5.9-1.3-19.2-2.1-17.9,1.9c1.3,4,21.5-6.5,28.4-3.6
	c6.9,2.9,33.9,12.2,23.6,37.9c-10.3,25.7-21.1,24-22.9,21.9s-7.2-0.6-0.8-22.5c6.3-21.9,4.4-29.6-8.4-29.3
	c-12.8,0.4-44.8-2.3-44.4,25.7s36.4,22.3,36.4,22.3s-13.9,0.2-11.4,4c2.5,3.8,20.6,3.6,22.1,0.6c1.5-2.9-7.6-5.1-7.6-5.1
	s9.1-46.3,25.1-40.4c1.1,2.9-15.6,6.7-20-2.9c-2.7-4.2-37.9-2.9-38.9-3.6c-1.1-0.6-6.8,1.8-7.8-17.2c-0.9-9.8-51.2-40.7-59.7-39.8
	c-8.5,0.9-16.7,5.4-13.3,18c3.5,12.6,19.6,4.7,23.7,5.7c4.1,0.9,28.4,9.2,12.3,18.3c-16.1,9.2-27.2-13.9-27.2-13.9
	s-33.5,0-33.8,47.7c1.3,7.9,2.2,12.9,6.6,6.3c4.5-6.6-5.4-35.7-5.4-35.7s23.4-15.8,18.6-29.1c-4.7-13.3-27.2-10.7-73.6,31.3
	c-17.4,22.1-2.5,34.7-2.5,34.7s-23.4,15.8-27.5,6.6c-4.1-9.2-3.5-25.6,0.9-27.2c4.4-1.6,28.1-3.5,27.5,5.1c-0.6,8.5,0,14.5,2.2,13.3
	c2.2-1.3,43.9-25.3,43.9-25.3s-19.9,14.1-12.9,35.7c5.4,12.3,9.5,7.6,9.5,6.6c0-0.9-3.2-9.2-28.7,3.8c-16.9,8-19-10.2-17.7-13.9
	c1.3-3.7,0-120.3,0-120.3s11.7,12.9,18.9,11.1c7.3-1.9,18.3-11.1,18.3-11.1l-1.6,48.3c0,0,0.3-32.5-2.8-34.7
	c-3.2-2.2-2.5,31.9-9.5,42.9s-18,21.2-18.6,17.1c-0.6-4.1-0.6-84-0.6-84s115.6,44.5,122.8,42.6c7.3-1.9,21.5-18.6,12.9-24.9
	c-8.5-6.3-128.8-48-130.7-48c-1.9,0,2.8,21.8-4.7,25.6c-7.6,3.8-6.9-2.8-5.7-11.1c1.3-8.2,8.2-18.3,8.2-18.3l124.5,40.4
	c0,0,19.5-10.7,13.2-25.9s-134.5-46.7-134.5-46.7s13.9,22.7-6.9,27.8c0,0,38.5,9.2,39.5,11.4c0.9,2.2,8.2,2.5,9.8-1.6
	c1.6-4.1,5.1-16.1,4.1-17.4c-0.9-1.3-33.5-13.9-35.7-8.8c-2.2,5.1,4.4,12.6,0.9,13.6c-3.5,0.9-16.4,6.3-20.2-0.9
	c-3.8-7.3-0.6-46.3-0.6-46.3h310.7h29.5v606.8h202.5c0,0,47.4,17.4,68.8-9.1c0,0,23.4-13.3,29.7,6.3c9.5,9.2,14.8-3.5,13.6-10.7
	c-1.3-7.3-11.7-48.3-27.8-69.2c-16.1-20.8-23.7-59.7-11.4-88.1c12.3-28.4,12.1-36,46.6-44.4c34.5-8.4,68.6-18.9,102.7,20.2
	s2.9,104.4-4.2,114.1c-7.2,9.7-36.6,45.1-30.7,69.9c1.3,10.9,2.1,17.3-7.2,20.6c-9.3,3.4-24,3.8-24.8-4.2c-0.8-8-6.7-80-5.9-88.4
	c0.8-8.4,8-14.1,12.2-6.6c4.2,7.5-7.8,12.5-16.4,11.5c-8.6-1.1-13.9-8.6-9.5-14.3c2.7-1.3,6.3,7.6,7.2,28.4
	c0.8,20.8,6.5,70.3,3.2,72.8c-3.4,2.5-28.6-3.8-29.1-5.5c-0.4-1.7-8,3.4-1.3,8c6.7,4.6,42.9,14.3,71.2,2.1
	c8.4-2.1-0.4,10.5-5.1,10.9c-4.6,0.4-34,12.6-46.7,1.3c-6.7-5.5-22.3-10.1-20.6-0.4c1.7,9.7,23.2,17.7,34.5,14.3s42.1-13.1,41.3-5.9
	c-0.8,7.2-10.1,10.5-23.6,12.6c-13.5,2.1-26.9,8-34.9,0.4c-8-7.6-16-9.3-14.7-1.7c1.3,7.6,24.4,16.4,25.3,20.6s2.9,13.5,8.8,10.5
	c5.9-2.9,8-14.3,15.2-15.6c7.2-1.3,29.1-11.8,31.2-16s49.3,2.5,62.7,10.5s35.4-8.4,38.3-14.3c2.9-5.9,11.3-6,11.3-6h48.3V383.9
	h414.9c0,0,98.5-41.8,197.1-0.6c57.8,16.7,67.3,24.2,65.4-22.2s-40.7-47.4-62.5-52.1c-21.8-4.7-65.4-52.1-62.5-58.7
	c2.8-6.6,16.1-5.7,15.2-18.9c-0.9-13.3-11.4-15.2-7.6-22.7c3.8-7.6-37.9-11.4-18.9,17.1c18.9,28.4,34.1,10.4,37.9,17.1
	c3.8,6.6,47.4,46,68.2,42s61.8-18.7,69.4-0.7c4.1,9.4,28.2-1.3,28.6-10.5c0.4-9.3,3.8-9.3,4.6-12.6c0,0,2.9-16-6.3-6.5
	c-9.3,9.5-1.3-6.9-3.6-12.2c0,0,1.1-9.5-24.2-1.3c-25.3,8.2-22.1-18.8,8.2-21.9c30.3-3.2,27.8,26.7,25.3,28.9
	c-7.6,6.5-17.7-8.5-12.6-14.8c5.1-6.3,2.7,6.2-4.1,9.5c-8.5,4.1-32.5,3.5-33.4-4.5c-0.9-8,3.2,19.7,10.8,38
	c5.3,12.7,2.8,29.1-1.6,36.6c-4.4,7.6-26,85.5-17.2,94.3c8.8,8.8,61.9,21.5,70.1,15.8s32.6-123.6-13.9-144.6
	c0,0-28.4,17.1-23.4,20.8c5.1,3.8,20.8,10.3,27.6,35.2c6.7,24.8,14.7,69.1,28.6,69.5c0,0,1.3,6.3-4.2,8.4s-37.1-23.6-41.3-67.8
	c-4.2-44.2,0-36.6,5.1-38.3c5.1-1.7,0.4-26.5,16.4-30.7c16-4.2,27.8,3.8,43.4-6.3c15.6-10.1,52.6-66.5,53.5-67.4s8.4,5.1,13.9,1.7
	c5.5-3.4,13.5-30.3,8-35.8c-5.5-5.5-23.2-14.7-21.9,4.2c2.5,12.6,6.3,12.6,3.4,24.4s15.6,14.3,14.3,18.5
	c-1.3,4.2-30.3,57.7-33.3,60.6c-2.9,2.9-50.9,29.1-41.7,39.2c9.3,10.1,24,93,15.6,100.8c-8.4,7.8-25.7,5.3-30.7,2.4
	c-5.1-2.9-17.3,12.2-11.4,21.9c5.9,9.7,71.2,66.1,69.5,76.6c-1.7,10.5,0.4,29.9-53.5,24c-25.7-4.6-53.9,5.5-57.3,3.4
	c-3.4-2.1-17.6-5.9-7.5-28.2c5-12.2-16.5-9.7-17.8,2.5c-1.3,12.2,7.6,17.3,8,21.5c0.4,4.2-0.8,22.1,3.4,33
	c4.2,10.8,9.3,15.5,11.8,13.4s6.7-46.3,6.7-46.3s-29.5-19.4-16.4-26.5c13.1-7.2,36.2,2.9,42.9-0.4c6.7-3.4,28.2-6.7,31.6-1.7
	c3.4,5.1,15.2,13.9-5.1,8.4c-20.2-5.5-44.2-32.4-60.2-30.3s-17.3,56.8-47.6,61.1c-30.3,4.2-43.9-94.7-41.1-100.4
	c2.8-5.7,14.9-6.9,17.9-5.3c2.9,1.7-4.6-6.7-10.9-3.4c-6.3,3.4-8.8,38.3-16.4,38.3c-7.6,0-10.1,2.1-9.3-7.6
	c0.8-9.7,0.8-21.1,13.1-29.9c12.2-8.8,14.3-18.1,23.6-13.1c9.3,5.1-2.1,13.5,2.1,19.8c4.2,6.3,13.1,34.9,13.5,40.8
	c0.4,5.9,1.3,24-3.8,27.8c-5.1,3.8,2.9-34.5,15.2-56c6.3-13.5,0.4-44.6,10.9-43.4c10.5,1.3,109.1,31.8,188.6,18.5
	s166.9-46.4,166.9-46.4V800"/>
<path class="st3" d="M266.8,661.7"/>
<path class="st4" d="M266.8,453"/>
<g>
	
		<pattern  id="SVGID_1_" xlink:href="#_x31_0_lpi_50_x25_" patternTransform="matrix(0.7071 0.7071 -0.7071 0.7071 -7165.6841 3225.011)">
	</pattern>
	<path class="st5" d="M311,706.4v-37.8h42.8v-41.3H311v-38h122.4v38h-49.5v41.3h49.5v37.8H311z"/>
	
		<pattern  id="SVGID_00000129893879311512078020000008509087003489112200_" xlink:href="#_x31_0_lpi_50_x25_" patternTransform="matrix(0.7071 0.7071 -0.7071 0.7071 -7165.6841 3225.011)">
	</pattern>
	<path style="fill:url(#SVGID_00000129893879311512078020000008509087003489112200_);" d="M311,564.3V462.9h26.1v63.4h19.4v-58.8h25
		v58.8h24.1v-65.3h27.7v103.2H311z"/>
	
		<pattern  id="SVGID_00000103253302733989287870000016265383445863718029_" xlink:href="#_x31_0_lpi_50_x25_" patternTransform="matrix(0.7071 0.7071 -0.7071 0.7071 -7165.6841 3225.011)">
	</pattern>
	<path style="fill:url(#SVGID_00000103253302733989287870000016265383445863718029_);" d="M311,440.7v-37.8h92.2v-59h30.1v96.8H311z
		"/>
	
		<pattern  id="SVGID_00000157301102093566375500000003854828085522165174_" xlink:href="#_x31_0_lpi_50_x25_" patternTransform="matrix(0.7071 0.7071 -0.7071 0.7071 -7165.6841 3225.011)">
	</pattern>
	<path style="fill:url(#SVGID_00000157301102093566375500000003854828085522165174_);" d="M311,326.7v-37.8h92.2v-59h30.1v96.8H311z
		"/>
	
		<pattern  id="SVGID_00000143579115312204260950000005355603078975112835_" xlink:href="#_x31_0_lpi_50_x25_" patternTransform="matrix(0.7071 0.7071 -0.7071 0.7071 -7165.6841 3225.011)">
	</pattern>
	<path style="fill:url(#SVGID_00000143579115312204260950000005355603078975112835_);" d="M372.3,220.4c-20,0-35.5-5.6-46.7-16.7
		c-11.1-11.1-16.7-26.6-16.7-46.5c0-20.4,5.5-36.1,16.4-47.1c10.9-11,26.3-16.5,46-16.5c14.3,0,26,2.4,35.2,7.2
		c9.2,4.8,16.3,11.8,21.4,20.9c5.1,9.1,7.6,20.4,7.6,34c0,13.8-2.2,25.2-6.6,34.3c-4.4,9-11.4,16.4-20.9,22
		C398.5,217.6,386.6,220.4,372.3,220.4z M372.5,182.6c12.4,0,21.2-2.3,26.6-6.9c5.4-4.6,8.1-10.8,8.1-18.7c0-8.1-2.6-14.4-7.9-18.9
		c-5.3-4.5-14.8-6.7-28.5-6.7c-11.5,0-19.9,2.3-25.3,7c-5.3,4.6-8,10.9-8,18.9c0,7.6,2.7,13.7,8.1,18.4
		C351.1,180.2,360,182.6,372.5,182.6z"/>
</g>
<image style="overflow:visible;" width="600" height="400" xlink:href="KakaoTalk_Photo_2022-08-07-17-22-07 003.jpeg"  transform="matrix(0.8473 0 0 0.8473 2138.9446 1017.528)">
</image>
<pattern  id="SVGID_00000180336247891650340130000017328662689316959916_" xlink:href="#_x31_0_lpi_40_x25_" patternTransform="matrix(0.7071 -0.7071 0.7071 0.7071 2855.8296 -7313.7886)">
</pattern>
<text transform="matrix(1 0 0 1 1243.4438 572.0486)" class="st11 st12" style="fill:url(#SVGID_00000180336247891650340130000017328662689316959916_);" ><pattern  id="SVGID_00000143581111371939106770000004849851462587511228_" xlink:href="#_x31_0_lpi_40_x25_" patternTransform="matrix(0.7071 -0.7071 0.7071 0.7071 2855.8296 -7313.7886)">
</pattern>
I’M</text>
<g>
	
		<pattern  id="SVGID_00000018934741434737608940000010103483721050378137_" xlink:href="#_x31_0_lpi_40_x25_" patternTransform="matrix(0.6257 -0.6257 0.6257 0.6257 1596.631 -7137.8569)">
	</pattern>
	<path style="fill:url(#SVGID_00000018934741434737608940000010103483721050378137_);" d="M2395.7,342.9l26.7,8.1
		c-1.8,7.5-4.6,13.8-8.5,18.8c-3.9,5-8.7,8.8-14.4,11.4c-5.7,2.6-13,3.8-21.8,3.8c-10.7,0-19.5-1.6-26.3-4.7
		c-6.8-3.1-12.7-8.6-17.6-16.4c-4.9-7.9-7.4-17.9-7.4-30.1c0-16.3,4.3-28.9,13-37.6c8.7-8.8,21-13.2,36.9-13.2
		c12.4,0,22.2,2.5,29.3,7.5c7.1,5,12.4,12.7,15.9,23.2l-26.9,6c-0.9-3-1.9-5.2-3-6.6c-1.7-2.3-3.8-4.1-6.3-5.4
		c-2.5-1.3-5.2-1.9-8.3-1.9c-6.9,0-12.2,2.8-15.9,8.3c-2.8,4.1-4.2,10.6-4.2,19.4c0,10.9,1.7,18.4,5,22.5c3.3,4.1,8,6.1,14,6.1
		c5.8,0,10.2-1.6,13.2-4.9C2392.2,353.9,2394.4,349.2,2395.7,342.9z"/>
	
		<pattern  id="SVGID_00000009551566428760378010000010093220601537081766_" xlink:href="#_x31_0_lpi_40_x25_" patternTransform="matrix(0.6257 -0.6257 0.6257 0.6257 1596.631 -7137.8569)">
	</pattern>
	<path style="fill:url(#SVGID_00000009551566428760378010000010093220601537081766_);" d="M2437.7,383.3v-98.7h50.8
		c9.4,0,16.6,0.8,21.6,2.4c5,1.6,9,4.6,12.1,9c3.1,4.4,4.6,9.7,4.6,16c0,5.5-1.2,10.2-3.5,14.2c-2.3,4-5.5,7.2-9.6,9.7
		c-2.6,1.6-6.2,2.9-10.7,3.9c3.6,1.2,6.3,2.4,7.9,3.6c1.1,0.8,2.7,2.5,4.9,5.2c2.1,2.7,3.6,4.7,4.3,6.1l14.8,28.6h-34.5l-16.3-30.2
		c-2.1-3.9-3.9-6.4-5.5-7.6c-2.2-1.5-4.7-2.3-7.5-2.3h-2.7v40.1H2437.7z M2468.3,324.6h12.9c1.4,0,4.1-0.4,8.1-1.3
		c2-0.4,3.7-1.4,4.9-3.1c1.3-1.7,1.9-3.6,1.9-5.7c0-3.2-1-5.6-3-7.3c-2-1.7-5.8-2.6-11.4-2.6h-13.4V324.6z"/>
	
		<pattern  id="SVGID_00000145773176624619181140000004862008804109372045_" xlink:href="#_x31_0_lpi_40_x25_" patternTransform="matrix(0.6257 -0.6257 0.6257 0.6257 1596.631 -7137.8569)">
	</pattern>
	<path style="fill:url(#SVGID_00000145773176624619181140000004862008804109372045_);" d="M2544.4,284.6h81.7v21.1H2575v15.7h47.5
		v20.1H2575V361h52.6v22.4h-83.2V284.6z"/>
	
		<pattern  id="SVGID_00000086658695184615624360000007730307523420023230_" xlink:href="#_x31_0_lpi_40_x25_" patternTransform="matrix(0.6257 -0.6257 0.6257 0.6257 1596.631 -7137.8569)">
	</pattern>
	<path style="fill:url(#SVGID_00000086658695184615624360000007730307523420023230_);" d="M2704.8,367h-34.6l-4.8,16.3h-31.1
		l37.1-98.7h33.3l37.1,98.7h-31.9L2704.8,367z M2698.4,345.7l-10.9-35.5l-10.8,35.5H2698.4z"/>
	
		<pattern  id="SVGID_00000108271817690259791620000007103888307359112065_" xlink:href="#_x31_0_lpi_40_x25_" patternTransform="matrix(0.6257 -0.6257 0.6257 0.6257 1596.631 -7137.8569)">
	</pattern>
	<path style="fill:url(#SVGID_00000108271817690259791620000007103888307359112065_);" d="M2734.9,284.6h92.7V309h-31.1v74.3H2766
		V309h-31.1V284.6z"/>
	
		<pattern  id="SVGID_00000067948063662220649450000001607107908935720328_" xlink:href="#_x31_0_lpi_40_x25_" patternTransform="matrix(0.6257 -0.6257 0.6257 0.6257 1596.631 -7137.8569)">
	</pattern>
	<path style="fill:url(#SVGID_00000067948063662220649450000001607107908935720328_);" d="M2842.6,284.6h30.6v98.7h-30.6V284.6z"/>
	
		<pattern  id="SVGID_00000090992192159731740400000014433765342054818966_" xlink:href="#_x31_0_lpi_40_x25_" patternTransform="matrix(0.6257 -0.6257 0.6257 0.6257 1596.631 -7137.8569)">
	</pattern>
	<path style="fill:url(#SVGID_00000090992192159731740400000014433765342054818966_);" d="M2885.4,284.6h31.9l22.2,71l21.9-71h31
		l-36.6,98.7h-33.1L2885.4,284.6z"/>
	
		<pattern  id="SVGID_00000076594376649096904120000001717856478134602125_" xlink:href="#_x31_0_lpi_40_x25_" patternTransform="matrix(0.6257 -0.6257 0.6257 0.6257 1596.631 -7137.8569)">
	</pattern>
	<path style="fill:url(#SVGID_00000076594376649096904120000001717856478134602125_);" d="M3002.3,284.6h81.7v21.1h-51.2v15.7h47.5
		v20.1h-47.5V361h52.6v22.4h-83.2V284.6z"/>
</g>
<image style="overflow:visible;" width="1440" height="1008" xlink:href="KakaoTalk_Photo_2022-08-07-17-22-07 004.jpeg"  transform="matrix(-0.5248 0 0 0.5248 3152.968 1443.5922)">
</image>
<image style="overflow:visible;" width="1000" height="780" xlink:href="img/happy-running-man-continuous-one-line-drawing-vector-27594717.jpeg"  transform="matrix(-1 0 0 1 3619.3779 1001.0698)">
</image>
<path class="st3" d="M3409.1,199.3"/>
<g>
	
		<pattern  id="SVGID_00000040546905114456957750000009512877958201747118_" xlink:href="#_x31_0_lpi_40_x25_" patternTransform="matrix(0.7071 -0.7071 0.7071 0.7071 2780.5894 -7269.146)">
	</pattern>
	<path style="fill:url(#SVGID_00000040546905114456957750000009512877958201747118_);" d="M3868.5,122.5v31.9
		c0,6.3-1.4,11.4-4.3,15.2c-2.9,3.9-7,7.1-12.4,9.6s-11.7,4.4-18.9,5.5c-7.2,1.1-14.8,1.7-22.8,1.7c-12.6,0-22.3-0.8-29.2-2.5
		c-6.9-1.7-12.7-4-17.4-7c-4.7-3-7.8-6.2-9.3-9.7c-2.1-4.7-3.2-9-3.2-12.8v-31.9H3868.5z M3841.9,144h-64.3v5.3
		c0,4.5,0.8,7.7,2.5,9.6c1.7,1.9,4.6,3.4,8.8,4.5c4.2,1.1,11,1.6,20.4,1.6c12.5,0,21-1.2,25.6-3.6c4.6-2.4,6.9-6.4,6.9-11.9V144z"/>
	
		<pattern  id="SVGID_00000111167554375343686590000014740423606865802656_" xlink:href="#_x31_0_lpi_40_x25_" patternTransform="matrix(0.7071 -0.7071 0.7071 0.7071 2780.5894 -7269.146)">
	</pattern>
	<path style="fill:url(#SVGID_00000111167554375343686590000014740423606865802656_);" d="M3868.5,197.6v57.5h-25.1v-36h-18.7v33.4
		h-24v-33.4h-23.2v37h-26.6v-58.5H3868.5z"/>
	
		<pattern  id="SVGID_00000083091337704944079580000000493949635932006019_" xlink:href="#_x31_0_lpi_40_x25_" patternTransform="matrix(0.7071 -0.7071 0.7071 0.7071 2780.5894 -7269.146)">
	</pattern>
	<path style="fill:url(#SVGID_00000083091337704944079580000000493949635932006019_);" d="M3868.5,260.9v22.4l-84.6,15.6l84.6,15.4
		v21.8l-117.6-25.8v-23.3L3868.5,260.9z"/>
	
		<pattern  id="SVGID_00000110469750268073281270000001881056103422230187_" xlink:href="#_x31_0_lpi_40_x25_" patternTransform="matrix(0.7071 -0.7071 0.7071 0.7071 2780.5894 -7269.146)">
	</pattern>
	<path style="fill:url(#SVGID_00000110469750268073281270000001881056103422230187_);" d="M3868.5,343.2v57.5h-25.1v-36h-18.7v33.4
		h-24v-33.4h-23.2v37h-26.6v-58.5H3868.5z"/>
	
		<pattern  id="SVGID_00000159449527569162245040000006259869638151071379_" xlink:href="#_x31_0_lpi_40_x25_" patternTransform="matrix(0.7071 -0.7071 0.7071 0.7071 2780.5894 -7269.146)">
	</pattern>
	<path style="fill:url(#SVGID_00000159449527569162245040000006259869638151071379_);" d="M3868.5,413.3v21.5h-88.7v33.5h-29v-54.9
		H3868.5z"/>
	
		<pattern  id="SVGID_00000181050154352190224390000012692311197398402198_" xlink:href="#_x31_0_lpi_40_x25_" patternTransform="matrix(0.7071 -0.7071 0.7071 0.7071 2780.5894 -7269.146)">
	</pattern>
	<path style="fill:url(#SVGID_00000181050154352190224390000012692311197398402198_);" d="M3809.6,473.6c19.2,0,34.1,3.2,44.8,9.5
		c10.7,6.3,16,15.1,16,26.4c0,11.6-5.3,20.5-15.8,26.7c-10.5,6.3-25.2,9.4-44.2,9.4c-13.7,0-25-1.4-33.8-4.1
		c-8.8-2.7-15.6-6.7-20.5-11.8c-4.9-5.2-7.3-11.6-7.3-19.3c0-7.8,2.1-14.3,6.3-19.4c4.2-5.1,10.9-9.3,20.1-12.5
		C3784.5,475.2,3795.9,473.6,3809.6,473.6z M3809.5,495.1c-11.9,0-20.4,1.3-25.6,3.9c-5.2,2.6-7.8,6.1-7.8,10.6
		c0,4.6,2.5,8.2,7.6,10.7c5.1,2.5,14.2,3.8,27.4,3.8c11.1,0,19.2-1.3,24.3-4c5.1-2.6,7.7-6.2,7.7-10.7c0-4.3-2.6-7.8-7.8-10.4
		S3821.5,495.1,3809.5,495.1z"/>
	
		<pattern  id="SVGID_00000047033918872616842230000013313316364100479360_" xlink:href="#_x31_0_lpi_40_x25_" patternTransform="matrix(0.7071 -0.7071 0.7071 0.7071 2780.5894 -7269.146)">
	</pattern>
	<path style="fill:url(#SVGID_00000047033918872616842230000013313316364100479360_);" d="M3868.5,557v35.7c0,7.8-3.1,13.6-9.4,17.5
		c-6.3,3.9-15.2,5.8-26.7,5.8c-11.9,0-21.2-2.1-27.8-6.3c-6.7-4.2-10-10.7-10-19.3v-11.7h-43.6V557H3868.5z M3818.4,578.6v5.3
		c0,4.1,1.2,7,3.7,8.7c2.4,1.7,5.5,2.5,9.3,2.5c3.7,0,6.8-0.7,9.4-2.2c2.6-1.5,3.9-4.2,3.9-8.2v-6.1H3818.4z"/>
	
		<pattern  id="SVGID_00000173131456676162857420000011945927161332282526_" xlink:href="#_x31_0_lpi_40_x25_" patternTransform="matrix(0.7071 -0.7071 0.7071 0.7071 2780.5894 -7269.146)">
	</pattern>
	<path style="fill:url(#SVGID_00000173131456676162857420000011945927161332282526_);" d="M3868.5,627.1v57.5h-25.1v-36h-18.7V682
		h-24v-33.4h-23.2v37h-26.6v-58.5H3868.5z"/>
	
		<pattern  id="SVGID_00000098196410537054051030000015575773247560689057_" xlink:href="#_x31_0_lpi_40_x25_" patternTransform="matrix(0.7071 -0.7071 0.7071 0.7071 2780.5894 -7269.146)">
	</pattern>
	<path style="fill:url(#SVGID_00000098196410537054051030000015575773247560689057_);" d="M3750.9,697.5h117.6v35.8
		c0,6.6-1,11.7-2.9,15.2c-1.9,3.5-5.5,6.3-10.7,8.5c-5.2,2.1-11.6,3.2-19.1,3.2c-6.5,0-12.2-0.8-16.9-2.5c-4.7-1.6-8.6-3.9-11.5-6.8
		c-1.9-1.8-3.4-4.3-4.7-7.5c-1.4,2.6-2.9,4.4-4.3,5.6c-1,0.8-3,1.9-6.2,3.4s-5.6,2.5-7.3,3l-34.1,10.4v-24.2l35.9-11.5
		c4.7-1.5,7.7-2.7,9.1-3.9c1.8-1.5,2.7-3.3,2.7-5.3v-1.9h-47.7V697.5z M3820.9,719.1v9c0,1,0.5,2.9,1.6,5.7c0.5,1.4,1.7,2.6,3.7,3.5
		c2,0.9,4.3,1.3,6.8,1.3c3.8,0,6.7-0.7,8.7-2.1c2-1.4,3-4.1,3-8v-9.4H3820.9z"/>
</g>
<image style="overflow:visible;" width="960" height="671" xlink:href="city-6594832_960_720.png"  transform="matrix(1.7236 0 0 1.7236 109.0434 936.6488)">
</image>
</svg>
