<svg id="Layer_1" data-name="Layer 1" xmlns="http://www.w3.org/2000/svg" viewBox="0 0 1680 900"><path d="M426.82,457.94c88.37,55.23-8.19,230.36-35.51,192.86-27-37,30-110.8,51.29,28.07s116,124.45,116,124.45H716s43.66,21.83,51.55,6.58c1.58-2-48.13-5.79-49.45-28.67-.92-9.6-4.47-11.05-13.94-8.68s-87.58-20.12-89.95-22.09-16.17-2.37-16.17-.4,47.74,20.09,65.88,19.73,43,16.57,42.22,24.06l-128.23-1.57s-38.09.78-42.91-32.36c0-32.74,72.9-26.43,76-26.82s33.22-7.89,45.38,12.62c0,0-2.37-17.75-12.63-23.28s24.46,7.5,41-3.55,18.94-46.95,49.32-46.16c0,0-43.8,2.37-41.43-13.81s17.76-24.46,17.76-24.46l-.4-92.31,155.44,2.36s0,58.79,4.34,59.18,4.34-67.07,4.34-67.07H841.86S823.71,436.41,826.08,421c1-8.29-15.25-26.44-6.31-38.54s-2.63-27.35-10.52-23.67l-7.89,3.68s4.73-17.36,15.78-18.93,13.68-.53,12.62-26.31c-3.68-15.78-4.2-12.09-7.89-11.57s3.16-57.34-13.15-68.38-16.3,22.62-16.83,42.08C789.79,291,779.26,302,779.26,302s18.94,10.52,27.36-14.73c0,0,11,11.57,8.94,32.09,0,0-16.58-4.21-14.34,22.09-2,5.09-14.06.53-14.06.53S774,363,770.85,361.45s14.2-51,14.2-51-14.2,2.1-15.25-.53,25.77-35.77,0-44.19-30-5.26-27.36,17.36,31,56.81,14.21,82.59c0,0,8.66,5.26,44.57,1,15.39,2.63-1.71,156.58,0,158.51s-11.43,30.86-12.49,3.51c3.69-18.67,4.47-25.77-6.31-30s-8.15-4.74-8.15-4.74,15.78-5.78,16.83-21.56,20.25-56.55-35.24-78.12c0,0,20.51,2.1,18.14-4.74s-15.25-20-28.66-17.88,1.84,70-9.47,93.11-5.79,51-2.9,58.91,1.32,26,1.32,26H716.4v84.69H860.8l24.72,19.47-184.63.52s-6.38,3.29-.66,7.24,178.19,2,178.19,2,1.84,9.73-12.1,9.73S815,680,814,671c1.06-6,52.34,3.69,53.13,37.09s22.89,24.46,25.52,27.35S871.85,746,859.22,746.25s-12.89,25-26.3,33.93-18.67,4.47-18.67,4.47,27.09-41,7.62-60c-4.73-4.21-13.15,4.47-15.78,1.05s-6.57-11.83,0-18.41S763.22,680.23,734,720c-12.1,24.72-18.15,42.08,8.68,67.33,20.25,16.57,71.54,13.67,84.16-8.94s20.25-87.33-35.24-92.59c0,0-9.73-19.2-18.15-12.89s-6.58,12.1-11.31,13.42-59.44,18.15-39.72,86.79c14.07,38.55,78.91,31.83,109.42,30s43.66,1.31,50,.26,34.46-7.63,33.67-26.83-7.93-26.42-21.83-30.24,24.46-11.84,25.25-5.53-19.73,8.68-17.62-8.15S922.08,665,929.19,660c3.15-1.58-8.43,5.7-33.41,4.73,0,0-8.94-1.31-9.73,2.11s-7.1-7.37,23.15-14.47c0,0-14.73-16-23.15-13.41s-22.36-7.63-21.3-9.21S888.42,635,890,631.31s-30-.53-29.2-6.58,49.45-1.31,49.45-1.31,20.25,15,23.67,13.67,22.36,6,16,55.76,3.16,66-11.57,76.81-34.45,33.66-34.45,33.66,50.23,80.71,130.72-18.71c9.46-14.21,0-45.77-17.36-20.52s-37.88,83.64,14.2,83.64,4.73,46.15-17.36,52.27" style="fill:none;stroke:#1d1d1b;stroke-miterlimit:10;stroke-width:2px"/></svg>