<svg id="Layer_1" data-name="Layer 1" xmlns="http://www.w3.org/2000/svg" viewBox="0 0 1680 900"><path d="M458.32,546.16c70.73,44.21-6.56,184.39-28.42,154.37C408.32,670.9,453.9,611.85,471,723s92.84,99.62,92.84,99.62h126s35,17.47,41.26,5.26c1.27-1.58-38.52-4.63-39.58-23-.73-7.68-3.57-8.84-11.15-6.95s-70.11-16.1-72-17.68-13-1.89-13-.32,38.22,16.08,52.74,15.79S682.53,809,681.9,815l-102.64-1.27s-30.49.64-34.35-25.89c0-26.21,58.35-21.16,60.88-21.47s26.58-6.32,36.32,10.1c0,0-1.9-14.21-10.11-18.63s19.58,6,32.84-2.84,15.16-37.58,39.48-36.95c0,0-35.06,1.9-33.16-11.05s14.21-19.58,14.21-19.58l-.32-73.9,124.42,1.9s0,47,3.48,47.37,3.47-53.69,3.47-53.69H790.53S776,528.93,777.89,516.62c.85-6.63-12.21-21.16-5-30.84s-2.1-21.9-8.42-18.95l-6.31,2.95s3.78-13.9,12.63-15.16,10.94-.42,10.1-21.06c-3-12.63-3.37-9.68-6.31-9.26s2.52-45.89-10.53-54.74-13,18.11-13.47,33.69c-1.69,9.26-10.11,18.1-10.11,18.1s15.16,8.43,21.9-11.79c0,0,8.84,9.27,7.15,25.69,0,0-13.27-3.37-11.47,17.68-1.58,4.07-11.26.42-11.26.42s-10.53,16.85-13.06,15.58,11.37-40.84,11.37-40.84-11.37,1.69-12.21-.42,20.63-28.63,0-35.37-24-4.21-21.89,13.9,24.84,45.47,11.37,66.1c0,0,6.93,4.21,35.68.84,12.32,2.11-1.38,125.33,0,126.88s-9.16,24.7-10,2.81c3-15,3.58-20.63-5-24s-6.53-3.79-6.53-3.79,12.63-4.63,13.47-17.27,16.22-45.26-28.21-62.52c0,0,16.43,1.68,14.53-3.79s-12.21-16-23-14.32,1.48,56-7.58,74.53-4.63,40.84-2.31,47.16,1,20.84,1,20.84H690.11v67.79H805.68L825.47,703l-147.79.42s-5.1,2.63-.52,5.79,142.63,1.58,142.63,1.58,1.47,7.79-9.68,7.79-41.06,5.26-41.9-1.9c.84-4.84,41.9,2.95,42.53,29.69S829.05,766,831.16,768.3s-16.63,8.42-26.74,8.63-10.31,20-21,27.16-15,3.58-15,3.58,21.69-32.84,6.11-48c-3.79-3.37-10.53,3.58-12.64.84s-5.26-9.47,0-14.74-34.31-21.68-57.68,10.11c-9.68,19.79-14.53,33.68,6.95,53.89,16.21,13.27,57.26,11,67.37-7.15s16.21-69.9-28.21-74.11c0,0-7.79-15.37-14.53-10.31s-5.26,9.68-9,10.73S679.16,743.46,695,798.41c11.26,30.85,63.16,25.47,87.58,24s34.94,1.05,40,.21,27.58-6.11,26.94-21.48S843.13,780,832,776.93s19.58-9.47,20.21-4.42-15.79,7-14.1-6.52,16.63-54.11,22.31-58.11c2.53-1.26-6.74,4.57-26.74,3.79,0,0-7.15-1-7.79,1.68s-5.68-5.89,18.53-11.58c0,0-11.79-12.84-18.53-10.73s-17.89-6.11-17-7.37,18.95,4.21,20.21,1.26-24-.42-23.37-5.26,39.58-1,39.58-1,16.21,12,19,10.94,17.9,4.85,12.84,44.64,2.53,52.84-9.26,61.47-27.58,27-27.58,27,40.21,64.59,104.63-15c7.58-11.37,0-36.64-13.89-16.42s-30.32,66.94,11.37,66.94,3.79,36.94-13.9,41.84" style="fill:none;stroke:#1d1d1b;stroke-miterlimit:10;stroke-width:2px"/></svg>